<?xml version="1.0" encoding="utf-8"?>
<!-- License: PD. Made by Mary Akveo: https://maryakveo.com/ -->
<svg fill="#ffffff" width="64px" height="64px" viewBox="0 0 24 24" id="time-management-time-3-o-clock" data-name="Flat Color" xmlns="http://www.w3.org/2000/svg" class="icon flat-color"><circle id="secondary" cx="16" cy="12" r="6" style="fill: rgb(44, 169, 188);"></circle><path id="primary" d="M18,13H16a1,1,0,0,1-1-1V9a1,1,0,0,1,2,0v2h1a1,1,0,0,1,0,2Zm-2,6A7,7,0,0,1,16,5a6.63,6.63,0,0,1,1,.08V4a2,2,0,0,0-2-2H4A2,2,0,0,0,2,4V20a2,2,0,0,0,2,2H15a2,2,0,0,0,2-2V18.92A6.63,6.63,0,0,1,16,19Z" style="fill: white;"></path></svg>